<?xml version="1.0" encoding="UTF-8" standalone="no"?>
<svg
   xmlns:dc="http://purl.org/dc/elements/1.1/"
   xmlns:cc="http://creativecommons.org/ns#"
   xmlns:rdf="http://www.w3.org/1999/02/22-rdf-syntax-ns#"
   xmlns:svg="http://www.w3.org/2000/svg"
   xmlns="http://www.w3.org/2000/svg"
   xmlns:sodipodi="http://sodipodi.sourceforge.net/DTD/sodipodi-0.dtd"
   xmlns:inkscape="http://www.inkscape.org/namespaces/inkscape"
   inkscape:version="1.0beta2 (unknown)"
   sodipodi:docname="electric-plug-socket.svg"
   xml:space="preserve"
   style="enable-background:new 0 0 122.88 121.29"
   viewBox="0 0 122.88 121.29"
   y="0px"
   x="0px"
   id="Layer_1"
   version="1.1"><metadata
     id="metadata13"><rdf:RDF><cc:Work
         rdf:about=""><dc:format>image/svg+xml</dc:format><dc:type
           rdf:resource="http://purl.org/dc/dcmitype/StillImage" /></cc:Work></rdf:RDF></metadata><defs
     id="defs11" /><sodipodi:namedview
     inkscape:current-layer="Layer_1"
     inkscape:window-maximized="1"
     inkscape:window-y="27"
     inkscape:window-x="0"
     inkscape:cy="60.645"
     inkscape:cx="61.439999"
     inkscape:zoom="7.0409761"
     showgrid="false"
     id="namedview9"
     inkscape:window-height="1053"
     inkscape:window-width="1920"
     inkscape:pageshadow="2"
     inkscape:pageopacity="0"
     guidetolerance="10"
     gridtolerance="10"
     objecttolerance="10"
     borderopacity="1"
     inkscape:document-rotation="0"
     bordercolor="#666666"
     pagecolor="#ffffff" /><style
     id="style2"
     type="text/css">.st0{fill-rule:evenodd;clip-rule:evenodd;}</style><g
     style="fill:#ffffff"
     id="g6"><path
       style="fill:#ffffff"
       inkscape:connector-curvature="0"
       id="path4"
       d="m 11.51,0 h 99.86 c 6.33,0 11.51,5.18 11.51,11.51 v 98.27 c 0,6.33 -5.18,11.51 -11.51,11.51 H 11.51 C 5.18,121.29 0,116.11 0,109.78 V 11.51 C 0,5.18 5.18,0 11.51,0 Z m 30.95,37.86 h 6.83 c 0.96,0 1.83,0.4 2.47,1.03 v 0 c 0.64,0.64 1.03,1.51 1.03,2.48 v 14.97 c 0,0.96 -0.4,1.83 -1.03,2.46 l -0.01,0.01 v 0 c -0.64,0.63 -1.51,1.03 -2.47,1.03 h -6.83 c -0.95,0 -1.83,-0.4 -2.47,-1.04 v 0 C 39.35,58.17 38.95,57.29 38.95,56.33 V 41.37 c 0,-0.96 0.39,-1.84 1.03,-2.48 0.64,-0.63 1.51,-1.03 2.48,-1.03 z m 12.78,45.95 h 12.41 v -7.96 c 0,-1.18 -0.48,-2.25 -1.26,-3.02 -0.78,-0.78 -1.85,-1.26 -3.02,-1.26 h -3.88 c -1.16,0 -2.23,0.48 -3,1.25 -0.77,0.77 -1.25,1.83 -1.25,3 z M 68.16,87.4 H 54.72 c -0.85,0 -1.61,-0.34 -2.17,-0.9 -0.56,-0.56 -0.9,-1.32 -0.9,-2.17 v -8.52 c 0,-2.15 0.88,-4.11 2.3,-5.53 1.42,-1.42 3.37,-2.3 5.53,-2.3 h 3.88 c 2.17,0 4.13,0.88 5.56,2.31 1.43,1.43 2.31,3.39 2.31,5.56 v 8.48 c 0,0.85 -0.34,1.61 -0.9,2.17 -0.56,0.55 -1.33,0.9 -2.17,0.9 z m 5.43,-49.54 h 6.83 c 0.96,0 1.83,0.4 2.47,1.03 v 0 c 0.64,0.64 1.03,1.51 1.03,2.48 v 14.97 c 0,0.96 -0.4,1.83 -1.03,2.46 l -0.01,0.01 v 0 c -0.64,0.63 -1.51,1.03 -2.47,1.03 h -6.83 c -0.95,0 -1.83,-0.4 -2.47,-1.04 v 0 C 70.48,58.17 70.08,57.29 70.08,56.33 V 41.37 c 0,-0.96 0.39,-1.84 1.03,-2.48 0.64,-0.63 1.51,-1.03 2.48,-1.03 z m 6.75,3.58 h -6.68 v 14.81 h 6.68 z m -31.13,0 h -6.68 v 14.81 h 6.68 z M 108.88,9.55 c 2.76,0 5,2.24 5,5 0,2.76 -2.24,5 -5,5 -2.76,0 -5,-2.24 -5,-5 0,-2.77 2.24,-5 5,-5 z m -94.26,91.59 c 2.76,0 5,2.24 5,5 0,2.76 -2.24,5 -5,5 -2.76,0 -5,-2.24 -5,-5 0.01,-2.76 2.24,-5 5,-5 z M 61.04,19.61 c 22.66,0 41.03,18.37 41.03,41.03 0,22.66 -18.37,41.03 -41.03,41.03 -22.66,0 -41.03,-18.37 -41.03,-41.03 0,-22.66 18.37,-41.03 41.03,-41.03 z"
       class="st0" /></g></svg>
