<?xml version="1.0" encoding="UTF-8" standalone="no"?>
<svg
   xmlns:dc="http://purl.org/dc/elements/1.1/"
   xmlns:cc="http://creativecommons.org/ns#"
   xmlns:rdf="http://www.w3.org/1999/02/22-rdf-syntax-ns#"
   xmlns:svg="http://www.w3.org/2000/svg"
   xmlns="http://www.w3.org/2000/svg"
   xmlns:sodipodi="http://sodipodi.sourceforge.net/DTD/sodipodi-0.dtd"
   xmlns:inkscape="http://www.inkscape.org/namespaces/inkscape"
   inkscape:version="1.0beta2 (unknown)"
   sodipodi:docname="email-mail-sent_dark.svg"
   xml:space="preserve"
   style="enable-background:new 0 0 122.88 71.9"
   viewBox="0 0 122.88 71.9"
   y="0px"
   x="0px"
   id="Layer_1"
   version="1.1"><metadata
     id="metadata11"><rdf:RDF><cc:Work
         rdf:about=""><dc:format>image/svg+xml</dc:format><dc:type
           rdf:resource="http://purl.org/dc/dcmitype/StillImage" /><dc:title></dc:title></cc:Work></rdf:RDF></metadata><defs
     id="defs9" /><sodipodi:namedview
     inkscape:current-layer="Layer_1"
     inkscape:window-maximized="1"
     inkscape:window-y="27"
     inkscape:window-x="0"
     inkscape:cy="60.53738"
     inkscape:cx="-17.447496"
     inkscape:zoom="1.4847009"
     showgrid="false"
     id="namedview7"
     inkscape:window-height="1053"
     inkscape:window-width="1920"
     inkscape:pageshadow="2"
     inkscape:pageopacity="0"
     guidetolerance="10"
     gridtolerance="10"
     objecttolerance="10"
     borderopacity="1"
     inkscape:document-rotation="0"
     bordercolor="#666666"
     pagecolor="#ffffff" /><g
     style="fill:#374246;fill-opacity:1"
     id="g4"><path
       style="fill:#374246;fill-opacity:1"
       inkscape:connector-curvature="0"
       id="path2"
       d="m 29.56,0 h 88.02 c 1.57,0 2.95,0.64 3.9,1.67 0.96,1.03 1.5,2.46 1.38,4.03 l -4.42,60.49 c -0.09,1.18 -0.53,2.28 -1.22,3.2 -0.14,0.3 -0.33,0.57 -0.59,0.8 -0.17,0.15 -0.36,0.28 -0.56,0.37 -1.05,0.83 -2.36,1.33 -3.74,1.33 H 24.31 c -1.57,0 -2.95,-0.64 -3.91,-1.67 -0.96,-1.03 -1.49,-2.46 -1.38,-4.03 l 1.25,-10.18 h 4.37 l -1.08,7.78 v 0 L 56.67,32.86 27.67,7.72 27.38,11.65 H 23 L 23.43,5.7 C 23.54,4.13 24.29,2.7 25.4,1.67 26.51,0.64 27.99,0 29.56,0 Z M 2.19,49.78 C 0.98,49.78 0,48.8 0,47.59 0,46.38 0.98,45.4 2.19,45.4 h 28.89 c 1.21,0 2.19,0.98 2.19,2.19 0,1.21 -0.98,2.19 -2.19,2.19 H 2.19 Z M 13.02,36.22 c -1.21,0 -2.19,-0.98 -2.19,-2.19 0,-1.21 0.98,-2.19 2.19,-2.19 h 25.06 c 1.21,0 2.19,0.98 2.19,2.19 0,1.21 -0.98,2.19 -2.19,2.19 z M 2.19,22.66 C 0.98,22.66 0,21.68 0,20.47 0,19.26 0.98,18.28 2.19,18.28 h 28.89 c 1.21,0 2.19,0.98 2.19,2.19 0,1.21 -0.98,2.19 -2.19,2.19 H 2.19 Z M 59.87,35.64 25.74,67.52 h 85.53 L 83.2,35.64 72.56,44.18 v 0 c -0.83,0.67 -2.01,0.71 -2.8,0.03 z m 26.87,-2.83 27.5,31.23 4.13,-56.6 z M 30.71,4.37 71.44,39.68 115.47,4.37 Z" /></g></svg>
