<?xml version="1.0" encoding="UTF-8" standalone="no"?>
<svg
   xmlns:dc="http://purl.org/dc/elements/1.1/"
   xmlns:cc="http://creativecommons.org/ns#"
   xmlns:rdf="http://www.w3.org/1999/02/22-rdf-syntax-ns#"
   xmlns:svg="http://www.w3.org/2000/svg"
   xmlns="http://www.w3.org/2000/svg"
   xmlns:sodipodi="http://sodipodi.sourceforge.net/DTD/sodipodi-0.dtd"
   xmlns:inkscape="http://www.inkscape.org/namespaces/inkscape"
   inkscape:version="1.0 (4035a4fb49, 2020-05-01)"
   sodipodi:docname="brick-wall.svg"
   xml:space="preserve"
   style="enable-background:new 0 0 122.88 114.94"
   viewBox="0 0 122.88 114.94"
   y="0px"
   x="0px"
   id="Layer_1"
   version="1.1"><metadata
     id="metadata13"><rdf:RDF><cc:Work
         rdf:about=""><dc:format>image/svg+xml</dc:format><dc:type
           rdf:resource="http://purl.org/dc/dcmitype/StillImage" /></cc:Work></rdf:RDF></metadata><defs
     id="defs11" /><sodipodi:namedview
     inkscape:current-layer="Layer_1"
     inkscape:window-maximized="1"
     inkscape:window-y="27"
     inkscape:window-x="0"
     inkscape:cy="57.470001"
     inkscape:cx="61.439999"
     inkscape:zoom="7.4473637"
     showgrid="false"
     id="namedview9"
     inkscape:window-height="1053"
     inkscape:window-width="1920"
     inkscape:pageshadow="2"
     inkscape:pageopacity="0"
     guidetolerance="10"
     gridtolerance="10"
     objecttolerance="10"
     borderopacity="1"
     bordercolor="#666666"
     pagecolor="#ffffff" /><style
     id="style2"
     type="text/css">.st0{fill-rule:evenodd;clip-rule:evenodd;}</style><g
     style="fill:#374246;fill-opacity:1;opacity:1"
     id="g6"><path
       style="fill:#374246;fill-opacity:1"
       id="path4"
       d="m 1.71,0 h 20.82 c 0.94,0 1.71,0.77 1.71,1.71 v 21.37 c 0,0.94 -0.77,1.71 -1.71,1.71 H 1.71 C 0.77,24.78 0,24.02 0,23.08 V 1.71 C 0,0.77 0.77,0 1.71,0 Z m 0.21,90.16 h 40.76 c 0.94,0 1.71,0.77 1.71,1.71 v 21.37 c 0,0.94 -0.77,1.71 -1.71,1.71 H 1.92 c -0.94,0 -1.71,-0.77 -1.71,-1.71 V 91.86 c 0.01,-0.94 0.77,-1.7 1.71,-1.7 z m 98.59,0 h 20.53 c 0.94,0 1.71,0.77 1.71,1.71 v 21.37 c 0,0.94 -0.77,1.71 -1.71,1.71 h -20.53 c -0.94,0 -1.71,-0.77 -1.71,-1.71 V 91.86 c 0,-0.94 0.77,-1.7 1.71,-1.7 z m -49.17,0 H 92.1 c 0.94,0 1.71,0.77 1.71,1.71 v 21.37 c 0,0.94 -0.77,1.71 -1.71,1.71 H 51.34 c -0.94,0 -1.71,-0.77 -1.71,-1.71 V 91.86 c 0,-0.94 0.77,-1.7 1.71,-1.7 z M 80.41,60.1 h 40.76 c 0.94,0 1.71,0.77 1.71,1.71 v 21.37 c 0,0.94 -0.77,1.71 -1.71,1.71 H 80.41 c -0.94,0 -1.71,-0.77 -1.71,-1.71 V 61.81 c 0,-0.94 0.77,-1.71 1.71,-1.71 z m -49.28,0 h 40.76 c 0.94,0 1.71,0.77 1.71,1.71 v 21.37 c 0,0.94 -0.77,1.71 -1.71,1.71 H 31.13 c -0.94,0 -1.71,-0.77 -1.71,-1.71 V 61.81 c 0.01,-0.94 0.77,-1.71 1.71,-1.71 z m -29.42,0 h 20.82 c 0.94,0 1.71,0.77 1.71,1.71 v 21.37 c 0,0.94 -0.77,1.71 -1.71,1.71 H 1.71 C 0.77,84.89 0,84.12 0,83.18 V 61.81 C 0,60.87 0.77,60.1 1.71,60.1 Z M 1.92,30.05 h 40.76 c 0.94,0 1.71,0.77 1.71,1.71 v 21.37 c 0,0.94 -0.77,1.71 -1.71,1.71 H 1.92 c -0.94,0 -1.71,-0.77 -1.71,-1.71 V 31.76 c 0.01,-0.94 0.77,-1.71 1.71,-1.71 z m 98.59,0 h 20.53 c 0.94,0 1.71,0.77 1.71,1.71 v 21.37 c 0,0.94 -0.77,1.71 -1.71,1.71 h -20.53 c -0.94,0 -1.71,-0.77 -1.71,-1.71 V 31.76 c 0,-0.94 0.77,-1.71 1.71,-1.71 z m -49.17,0 H 92.1 c 0.94,0 1.71,0.77 1.71,1.71 v 21.37 c 0,0.94 -0.77,1.71 -1.71,1.71 H 51.34 c -0.94,0 -1.71,-0.77 -1.71,-1.71 V 31.76 c 0,-0.94 0.77,-1.71 1.71,-1.71 z M 80.41,0 h 40.76 c 0.94,0 1.71,0.77 1.71,1.71 v 21.37 c 0,0.94 -0.77,1.71 -1.71,1.71 H 80.41 c -0.94,0 -1.71,-0.77 -1.71,-1.71 V 1.71 C 78.7,0.77 79.47,0 80.41,0 Z M 31.13,0 h 40.76 c 0.94,0 1.71,0.77 1.71,1.71 v 21.37 c 0,0.94 -0.77,1.71 -1.71,1.71 H 31.13 c -0.94,0 -1.71,-0.77 -1.71,-1.71 V 1.71 C 29.43,0.77 30.19,0 31.13,0 Z"
       class="st0" /></g></svg>
