<?xml version="1.0" encoding="UTF-8" standalone="no"?>
<svg
   xmlns:dc="http://purl.org/dc/elements/1.1/"
   xmlns:cc="http://creativecommons.org/ns#"
   xmlns:rdf="http://www.w3.org/1999/02/22-rdf-syntax-ns#"
   xmlns:svg="http://www.w3.org/2000/svg"
   xmlns="http://www.w3.org/2000/svg"
   xmlns:sodipodi="http://sodipodi.sourceforge.net/DTD/sodipodi-0.dtd"
   xmlns:inkscape="http://www.inkscape.org/namespaces/inkscape"
   inkscape:version="1.0 (4035a4fb49, 2020-05-01)"
   sodipodi:docname="speaking-bubbles-line.svg"
   xml:space="preserve"
   enable-background="new 0 0 122.88 102.85"
   viewBox="0 0 122.88 102.85"
   height="102.85px"
   width="122.88px"
   y="0px"
   x="0px"
   id="Layer_1"
   version="1.1"><metadata
     id="metadata11"><rdf:RDF><cc:Work
         rdf:about=""><dc:format>image/svg+xml</dc:format><dc:type
           rdf:resource="http://purl.org/dc/dcmitype/StillImage" /></cc:Work></rdf:RDF></metadata><defs
     id="defs9" /><sodipodi:namedview
     inkscape:current-layer="Layer_1"
     inkscape:window-maximized="1"
     inkscape:window-y="27"
     inkscape:window-x="0"
     inkscape:cy="51.424999"
     inkscape:cx="61.439999"
     inkscape:zoom="8.3228003"
     showgrid="false"
     id="namedview7"
     inkscape:window-height="1053"
     inkscape:window-width="1920"
     inkscape:pageshadow="2"
     inkscape:pageopacity="0"
     guidetolerance="10"
     gridtolerance="10"
     objecttolerance="10"
     borderopacity="1"
     bordercolor="#666666"
     pagecolor="#ffffff" /><g
     style="fill:#374246;fill-opacity:1"
     id="g4"><path
       style="fill:#374246;fill-opacity:1"
       id="path2"
       d="m 122.88,35.619 v 28.67 c 0,2.608 -0.466,5.046 -1.4,7.315 -0.933,2.264 -2.322,4.319 -4.174,6.169 -0.802,0.797 -1.645,1.511 -2.526,2.14 -0.906,0.646 -1.832,1.194 -2.777,1.644 -0.05,0.024 -0.101,0.047 -0.152,0.067 -1.21,0.563 -2.47,0.986 -3.779,1.271 -1.357,0.295 -2.763,0.443 -4.215,0.443 h -8.544 -0.017 -0.017 -0.018 -0.017 -0.456 c 0.181,0.577 0.37,1.149 0.566,1.716 0.555,1.603 1.18,3.182 1.875,4.731 l 0.01,0.021 10e-4,-10e-4 c 0.626,1.431 1.464,2.826 2.509,4.186 1.077,1.402 2.394,2.792 3.945,4.167 1.109,0.982 1.213,2.678 0.231,3.787 -0.691,0.781 -1.736,1.063 -2.682,0.819 v 0.001 c -3.333,-0.864 -6.479,-1.944 -9.443,-3.236 -2.965,-1.292 -5.762,-2.807 -8.393,-4.54 l -0.005,0.008 c -2.613,-1.709 -5.059,-3.633 -7.331,-5.768 -1.925,-1.81 -3.724,-3.773 -5.392,-5.892 h -0.908 -0.017 -0.017 -0.018 -0.017 -8.543 c -1.779,0 -3.482,-0.222 -5.108,-0.661 -1.628,-0.44 -3.18,-1.109 -4.652,-2.003 -1.266,-0.767 -1.671,-2.415 -0.905,-3.682 0.767,-1.267 2.415,-1.671 3.682,-0.904 1.009,0.612 2.097,1.077 3.264,1.393 1.16,0.313 2.4,0.472 3.72,0.472 h 8.543 0.017 0.018 0.017 0.017 2.222 v 0.011 c 0.814,0 1.619,0.371 2.146,1.072 1.695,2.264 3.567,4.358 5.614,6.281 2.021,1.899 4.222,3.627 6.595,5.179 l -0.006,0.008 0.006,0.003 c 2.254,1.485 4.672,2.803 7.254,3.95 -0.487,-0.827 -0.916,-1.662 -1.285,-2.505 h 0.001 c -0.736,-1.644 -1.415,-3.363 -2.034,-5.151 -0.589,-1.7 -1.116,-3.447 -1.582,-5.235 -0.104,-0.287 -0.161,-0.597 -0.161,-0.92 0,-1.487 1.206,-2.692 2.692,-2.692 h 4.011 0.017 0.018 0.017 0.017 8.544 c 1.082,0 2.108,-0.105 3.078,-0.316 0.923,-0.2 1.801,-0.493 2.632,-0.876 0.04,-0.021 0.081,-0.042 0.123,-0.063 0.702,-0.334 1.361,-0.721 1.978,-1.16 0.642,-0.458 1.261,-0.981 1.854,-1.571 1.34,-1.34 2.338,-2.807 2.995,-4.401 0.654,-1.588 0.98,-3.347 0.98,-5.275 v -28.67 c 0,-1.917 -0.326,-3.669 -0.98,-5.255 -0.657,-1.592 -1.655,-3.059 -2.995,-4.399 v 0 l -0.011,-0.01 c -1.34,-1.341 -2.807,-2.338 -4.398,-2.995 -1.586,-0.654 -3.338,-0.98 -5.255,-0.98 h -7.702 -5.612 c -1.487,0 -2.693,-1.206 -2.693,-2.693 0,-1.487 1.206,-2.693 2.693,-2.693 h 5.612 7.702 c 2.597,0 5.028,0.466 7.295,1.401 2.256,0.931 4.309,2.317 6.155,4.163 l 0.006,0.005 0.005,0.005 0.002,0.002 c 1.845,1.847 3.23,3.898 4.161,6.153 0.931,2.264 1.397,4.696 1.397,7.294 z M 48.405,5.386 H 32.34 19.025 c -1.917,0 -3.669,0.326 -5.255,0.98 -1.592,0.657 -3.059,1.655 -4.399,2.995 l -0.01,0.011 v 0 c -1.341,1.34 -2.338,2.807 -2.995,4.399 -0.654,1.586 -0.98,3.338 -0.98,5.255 v 28.67 c 0,1.929 0.326,3.687 0.98,5.276 0.657,1.595 1.655,3.062 2.995,4.401 1.348,1.339 2.822,2.341 4.421,3.002 1.584,0.654 3.332,0.984 5.243,0.984 h 12.621 c 1.487,0 2.693,1.205 2.693,2.692 0,0.323 -0.057,0.633 -0.161,0.92 -0.465,1.787 -0.993,3.535 -1.582,5.235 -0.62,1.788 -1.297,3.508 -2.034,5.151 v 0 c -0.369,0.843 -0.797,1.678 -1.285,2.505 2.583,-1.147 5,-2.465 7.255,-3.95 l 0.005,-0.003 -0.005,-0.008 c 2.373,-1.552 4.573,-3.279 6.595,-5.18 2.047,-1.922 3.919,-4.018 5.614,-6.28 0.526,-0.702 1.331,-1.072 2.146,-1.073 v -0.01 H 61.72 c 1.911,0 3.659,-0.33 5.243,-0.984 1.599,-0.661 3.073,-1.663 4.422,-3.002 1.34,-1.34 2.338,-2.807 2.995,-4.401 0.653,-1.589 0.979,-3.347 0.979,-5.276 v -28.67 c 0,-1.917 -0.326,-3.669 -0.979,-5.255 -0.657,-1.592 -1.655,-3.059 -2.995,-4.399 L 71.374,9.36 v 0 C 70.033,8.02 68.567,7.022 66.975,6.365 65.389,5.711 63.637,5.385 61.72,5.385 H 48.405 Z M 32.34,0 h 16.065 13.314 c 2.597,0 5.029,0.466 7.296,1.401 2.255,0.93 4.307,2.316 6.153,4.161 l 0.002,10e-4 0.005,0.006 0.006,0.005 c 1.845,1.848 3.231,3.899 4.162,6.156 0.936,2.267 1.401,4.699 1.401,7.295 v 28.67 c 0,2.608 -0.466,5.046 -1.401,7.316 -0.932,2.264 -2.322,4.318 -4.173,6.169 -1.849,1.836 -3.905,3.225 -6.167,4.159 -2.262,0.934 -4.69,1.404 -7.284,1.404 H 52.2 c -1.669,2.118 -3.467,4.083 -5.392,5.892 -2.273,2.136 -4.718,4.06 -7.332,5.769 l -0.004,-0.008 c -2.632,1.733 -5.428,3.248 -8.393,4.54 -2.964,1.292 -6.11,2.372 -9.443,3.236 v -10e-4 c -0.945,0.244 -1.991,-0.038 -2.683,-0.819 -0.981,-1.11 -0.878,-2.806 0.232,-3.787 1.552,-1.375 2.868,-2.765 3.946,-4.167 1.045,-1.359 1.882,-2.755 2.509,-4.186 h 10e-4 l 0.009,-0.021 c 0.695,-1.549 1.32,-3.128 1.875,-4.73 0.196,-0.567 0.385,-1.139 0.566,-1.717 h -9.067 c -2.594,0 -5.022,-0.471 -7.283,-1.404 C 9.478,64.405 7.422,63.016 5.574,61.181 3.723,59.33 2.333,57.276 1.401,55.012 0.466,52.742 0,50.304 0,47.696 V 19.026 C 0,16.429 0.466,13.997 1.401,11.731 2.332,9.476 3.717,7.424 5.562,5.577 L 5.564,5.575 5.569,5.57 5.574,5.564 C 7.421,3.719 9.473,2.333 11.729,1.402 13.997,0.466 16.429,0 19.025,0 Z" /></g></svg>
