<?xml version="1.0" encoding="UTF-8" standalone="no"?>
<svg
   xmlns:dc="http://purl.org/dc/elements/1.1/"
   xmlns:cc="http://creativecommons.org/ns#"
   xmlns:rdf="http://www.w3.org/1999/02/22-rdf-syntax-ns#"
   xmlns:svg="http://www.w3.org/2000/svg"
   xmlns="http://www.w3.org/2000/svg"
   xmlns:sodipodi="http://sodipodi.sourceforge.net/DTD/sodipodi-0.dtd"
   xmlns:inkscape="http://www.inkscape.org/namespaces/inkscape"
   inkscape:version="1.0beta2 (unknown)"
   sodipodi:docname="paper-plane_white.svg"
   xml:space="preserve"
   style="enable-background:new 0 0 122.88 103.44"
   viewBox="0 0 122.88 103.44"
   y="0px"
   x="0px"
   id="Layer_1"
   version="1.1"><metadata
     id="metadata11"><rdf:RDF><cc:Work
         rdf:about=""><dc:format>image/svg+xml</dc:format><dc:type
           rdf:resource="http://purl.org/dc/dcmitype/StillImage" /><dc:title></dc:title></cc:Work></rdf:RDF></metadata><defs
     id="defs9" /><sodipodi:namedview
     inkscape:current-layer="Layer_1"
     inkscape:window-maximized="1"
     inkscape:window-y="27"
     inkscape:window-x="0"
     inkscape:cy="31.706651"
     inkscape:cx="12.90305"
     inkscape:zoom="4.1279968"
     showgrid="false"
     id="namedview7"
     inkscape:window-height="1053"
     inkscape:window-width="1920"
     inkscape:pageshadow="2"
     inkscape:pageopacity="0"
     guidetolerance="10"
     gridtolerance="10"
     objecttolerance="10"
     borderopacity="1"
     inkscape:document-rotation="0"
     bordercolor="#666666"
     pagecolor="#ffffff" /><g
     style="fill:#ffffff"
     id="g4"><path
       style="fill:#ffffff"
       inkscape:connector-curvature="0"
       id="path2"
       d="M 69.49,102.77 49.8,84.04 29.57,102.31 c -0.45,0.49 -1.09,0.79 -1.8,0.79 -1.35,0 -2.44,-1.09 -2.44,-2.44 V 60.77 L 0.76,37.41 c -0.98,-0.93 -1.01,-2.47 -0.09,-3.45 0.31,-0.33 0.7,-0.55 1.11,-0.67 v 0 l 118,-33.2 c 1.3,-0.36 2.64,0.39 3.01,1.69 0.19,0.66 0.08,1.34 -0.24,1.89 l -49.2,98.42 c -0.6,1.2 -2.06,1.69 -3.26,1.09 -0.23,-0.11 -0.43,-0.25 -0.6,-0.41 z M 46.26,80.68 30.21,65.42 V 95.18 Z M 28.15,56.73 104.47,9.47 7.22,36.83 Z M 114.43,9.03 31.79,60.19 70.46,96.97 Z" /></g></svg>
