<?xml version="1.0" encoding="UTF-8" standalone="no"?>
<svg
   xmlns:dc="http://purl.org/dc/elements/1.1/"
   xmlns:cc="http://creativecommons.org/ns#"
   xmlns:rdf="http://www.w3.org/1999/02/22-rdf-syntax-ns#"
   xmlns:svg="http://www.w3.org/2000/svg"
   xmlns="http://www.w3.org/2000/svg"
   xmlns:sodipodi="http://sodipodi.sourceforge.net/DTD/sodipodi-0.dtd"
   xmlns:inkscape="http://www.inkscape.org/namespaces/inkscape"
   version="1.1"
   id="Layer_1"
   x="0px"
   y="0px"
   viewBox="0 0 97.88 122.88"
   style="enable-background:new 0 0 97.88 122.88"
   xml:space="preserve"
   sodipodi:docname="prereq_number_endocing_grey.svg"
   inkscape:version="1.0.1 (3bc2e813f5, 2020-09-07)"><metadata
     id="metadata13"><rdf:RDF><cc:Work
         rdf:about=""><dc:format>image/svg+xml</dc:format><dc:type
           rdf:resource="http://purl.org/dc/dcmitype/StillImage" /></cc:Work></rdf:RDF></metadata><defs
     id="defs11" /><sodipodi:namedview
     pagecolor="#ffffff"
     bordercolor="#666666"
     borderopacity="1"
     objecttolerance="10"
     gridtolerance="10"
     guidetolerance="10"
     inkscape:pageopacity="0"
     inkscape:pageshadow="2"
     inkscape:window-width="1920"
     inkscape:window-height="1053"
     id="namedview9"
     showgrid="false"
     inkscape:zoom="6.966146"
     inkscape:cx="48.939999"
     inkscape:cy="61.040507"
     inkscape:window-x="0"
     inkscape:window-y="27"
     inkscape:window-maximized="1"
     inkscape:current-layer="Layer_1" /><style
     type="text/css"
     id="style2">.st0{fill-rule:evenodd;clip-rule:evenodd;}</style><g
     id="g6"
     style="fill:#374246;fill-opacity:1"><path
       class="st0"
       d="M20.85,59.73c0-4.28,0.77-7.27,2.31-8.98c1.54-1.71,3.89-2.57,7.04-2.57c1.52,0,2.76,0.19,3.73,0.56 c0.98,0.37,1.77,0.86,2.38,1.46c0.62,0.6,1.1,1.23,1.45,1.89c0.36,0.66,0.64,1.43,0.85,2.31c0.42,1.68,0.63,3.43,0.63,5.25 c0,4.09-0.69,7.08-2.08,8.97c-1.38,1.89-3.76,2.84-7.14,2.84c-1.89,0-3.42-0.3-4.59-0.91c-1.17-0.6-2.12-1.49-2.87-2.66 c-0.54-0.83-0.97-1.96-1.27-3.4C21.01,63.06,20.85,61.47,20.85,59.73L20.85,59.73z M66.69,0.69C66.23,0.28,65.58,0,64.94,0 c-0.14,0-0.28,0-0.41,0.05H5.81c-1.57,0-3.04,0.64-4.1,1.7C0.65,2.81,0,4.24,0,5.85v111.22c0,1.61,0.65,3.04,1.7,4.1 c1.06,1.06,2.49,1.7,4.1,1.7c29.59,0,56.74,0,86.18,0c1.61,0,3.04-0.65,4.1-1.7c1.06-1.06,1.7-2.49,1.7-4.1V33.87 c0.05-0.23,0.09-0.42,0.09-0.65c0-0.78-0.37-1.47-0.88-1.98l-30-30.36c-0.09-0.09-0.14-0.14-0.23-0.18H66.69L66.69,0.69z M60.67,7.64v20.93c0,2.17,0.87,4.74,2.3,6.17c1.43,1.43,4.45,2.6,6.62,2.6h20.66v77.35c0,0.14-0.2,0.32-0.33,0.41 c-0.09,0.09-0.08,0.18-0.27,0.18c-23.42,0-58.73,0-81.51,0c-0.14,0-0.32-0.05-0.41-0.18c-0.09-0.09-0.18-0.28-0.18-0.41V8.24 c0-0.18,0.05-0.32,0.18-0.41c0.09-0.09,0.23-0.18,0.41-0.18H60.67L60.67,7.64L60.67,7.64z M67.52,27.97V8.94l21.43,21.7H70.19 c-0.74,0-1.38-0.32-1.89-0.78C67.84,29.4,67.52,28.7,67.52,27.97L67.52,27.97z M60.08,95.2c0-4.28,0.77-7.27,2.31-8.98 c1.54-1.71,3.89-2.57,7.04-2.57c1.52,0,2.76,0.19,3.73,0.56c0.98,0.37,1.77,0.86,2.38,1.46c0.62,0.6,1.1,1.23,1.45,1.89 c0.36,0.66,0.64,1.43,0.85,2.31c0.42,1.68,0.63,3.43,0.63,5.26c0,4.09-0.69,7.07-2.08,8.97c-1.38,1.89-3.76,2.84-7.14,2.84 c-1.89,0-3.42-0.3-4.59-0.91c-1.17-0.6-2.12-1.49-2.87-2.66c-0.54-0.83-0.96-1.96-1.27-3.4C60.23,98.53,60.08,96.94,60.08,95.2 L60.08,95.2z M66.28,95.21c0,2.86,0.25,4.83,0.76,5.87c0.51,1.05,1.24,1.57,2.21,1.57c0.63,0,1.19-0.22,1.65-0.67 c0.47-0.45,0.81-1.15,1.03-2.11c0.22-0.97,0.33-2.47,0.33-4.5c0-2.99-0.25-5-0.76-6.03c-0.51-1.03-1.27-1.54-2.28-1.54 c-1.04,0-1.78,0.52-2.24,1.57C66.51,90.43,66.28,92.37,66.28,95.21L66.28,95.21z M53.28,83.65v22.91h-6.32V91.57 c-1.02,0.78-2.01,1.4-2.97,1.88c-0.96,0.48-2.16,0.94-3.6,1.37v-5.1c2.13-0.69,3.79-1.52,4.96-2.49c1.18-0.97,2.1-2.17,2.77-3.59 H53.28L53.28,83.65z M32.29,83.65v22.91h-6.32V91.57c-1.02,0.78-2.01,1.4-2.97,1.88c-0.96,0.48-2.16,0.94-3.6,1.37v-5.1 c2.13-0.69,3.79-1.52,4.96-2.49c1.18-0.97,2.1-2.17,2.77-3.59H32.29L32.29,83.65z M77.03,48.18v22.91H70.7V56.1 c-1.02,0.78-2.01,1.4-2.97,1.88c-0.96,0.48-2.16,0.94-3.6,1.37v-5.1c2.13-0.69,3.79-1.52,4.96-2.49c1.18-0.97,2.1-2.17,2.77-3.59 H77.03L77.03,48.18z M41.84,59.73c0-4.28,0.77-7.27,2.31-8.98c1.54-1.71,3.89-2.57,7.04-2.57c1.52,0,2.76,0.19,3.73,0.56 c0.98,0.37,1.77,0.86,2.38,1.46c0.62,0.6,1.1,1.23,1.45,1.89c0.36,0.66,0.64,1.43,0.85,2.31c0.42,1.68,0.63,3.43,0.63,5.25 c0,4.09-0.69,7.08-2.08,8.97c-1.38,1.89-3.76,2.84-7.14,2.84c-1.89,0-3.42-0.3-4.59-0.91c-1.17-0.6-2.12-1.49-2.87-2.66 c-0.54-0.83-0.96-1.96-1.27-3.4C42,63.06,41.84,61.47,41.84,59.73L41.84,59.73z M48.04,59.74c0,2.86,0.25,4.83,0.76,5.87 c0.51,1.05,1.24,1.57,2.21,1.57c0.63,0,1.19-0.22,1.65-0.67c0.47-0.45,0.81-1.15,1.03-2.11c0.22-0.97,0.33-2.47,0.33-4.5 c0-2.99-0.25-5-0.76-6.03c-0.51-1.03-1.27-1.54-2.28-1.54c-1.04,0-1.78,0.52-2.24,1.57C48.27,54.95,48.04,56.9,48.04,59.74 L48.04,59.74z M27.05,59.74c0,2.86,0.25,4.83,0.76,5.87c0.51,1.05,1.24,1.57,2.21,1.57c0.63,0,1.19-0.22,1.65-0.67 c0.47-0.45,0.81-1.15,1.03-2.11c0.22-0.97,0.33-2.47,0.33-4.5c0-2.99-0.25-5-0.76-6.03c-0.51-1.03-1.27-1.54-2.28-1.54 c-1.04,0-1.78,0.52-2.24,1.57C27.28,54.95,27.05,56.9,27.05,59.74L27.05,59.74z"
       id="path4"
       style="fill:#374246;fill-opacity:1" /></g></svg>
