<?xml version="1.0" encoding="UTF-8" standalone="no"?>
<svg
   xmlns:dc="http://purl.org/dc/elements/1.1/"
   xmlns:cc="http://creativecommons.org/ns#"
   xmlns:rdf="http://www.w3.org/1999/02/22-rdf-syntax-ns#"
   xmlns:svg="http://www.w3.org/2000/svg"
   xmlns="http://www.w3.org/2000/svg"
   xmlns:sodipodi="http://sodipodi.sourceforge.net/DTD/sodipodi-0.dtd"
   xmlns:inkscape="http://www.inkscape.org/namespaces/inkscape"
   inkscape:version="1.0 (4035a4fb49, 2020-05-01)"
   sodipodi:docname="reliability_grey.svg"
   xml:space="preserve"
   style="enable-background:new 0 0 103.12 122.88"
   viewBox="0 0 103.12 122.88"
   y="0px"
   x="0px"
   id="Layer_1"
   version="1.1"><metadata
     id="metadata13"><rdf:RDF><cc:Work
         rdf:about=""><dc:format>image/svg+xml</dc:format><dc:type
           rdf:resource="http://purl.org/dc/dcmitype/StillImage" /></cc:Work></rdf:RDF></metadata><defs
     id="defs11" /><sodipodi:namedview
     inkscape:current-layer="Layer_1"
     inkscape:window-maximized="1"
     inkscape:window-y="27"
     inkscape:window-x="0"
     inkscape:cy="61.439999"
     inkscape:cx="51.560001"
     inkscape:zoom="6.966146"
     showgrid="false"
     id="namedview9"
     inkscape:window-height="1053"
     inkscape:window-width="1920"
     inkscape:pageshadow="2"
     inkscape:pageopacity="0"
     guidetolerance="10"
     gridtolerance="10"
     objecttolerance="10"
     borderopacity="1"
     bordercolor="#666666"
     pagecolor="#ffffff" /><style
     id="style2"
     type="text/css">.st0{fill-rule:evenodd;clip-rule:evenodd;}</style><g
     style="fill:#374246;fill-opacity:1"
     id="g6"><path
       style="fill:#374246;fill-opacity:1"
       id="path4"
       d="m 31.98,12.22 c 8.95,0 16.2,7.25 16.2,16.2 0,8.95 -7.25,16.2 -16.2,16.2 -8.95,0 -16.2,-7.25 -16.2,-16.2 0,-8.95 7.25,-16.2 16.2,-16.2 z M 16.82,57.46 c -1.09,0 -1.98,-0.89 -1.98,-2 0,-1.11 0.88,-2 1.98,-2 h 30.13 c 1.09,0 1.98,0.89 1.98,2 0,1.11 -0.88,2 -1.98,2 z m 37.82,0 c -1.09,0 -1.98,-0.89 -1.98,-2 0,-1.11 0.88,-2 1.98,-2 h 32.5 c 1.09,0 1.98,0.89 1.98,2 0,1.11 -0.88,2 -1.98,2 z M 1.18,122.01 C 0.49,121.69 0,121 0,120.18 V 2 C 0,0.9 0.89,0 2,0 h 19.4 79.72 c 1.1,0 2,0.89 2,2 v 107.73 c 0,0.11 -0.01,0.21 -0.02,0.31 -0.28,3.93 -1.56,6.99 -3.86,9.18 -2.3,2.18 -5.53,3.4 -9.72,3.64 -0.09,0.01 -0.17,0.02 -0.26,0.02 H 2.83 c -0.68,0 -1.29,-0.35 -1.65,-0.87 z M 99.13,109.68 V 3.99 H 21.4 3.99 v 114.9 h 85.26 0.04 c 3.21,-0.18 5.61,-1.04 7.2,-2.55 1.57,-1.49 2.44,-3.72 2.64,-6.66 z M 16.82,90.07 c -1.09,0 -1.98,-0.89 -1.98,-2 0,-1.1 0.88,-2 1.98,-2 h 70.5 c 1.09,0 1.98,0.89 1.98,2 0,1.1 -0.88,2 -1.98,2 z m 0.32,-16.3 c -1.09,0 -1.98,-0.89 -1.98,-2 0,-1.11 0.88,-2 1.98,-2 h 70 c 1.09,0 1.98,0.89 1.98,2 0,1.11 -0.88,2 -1.98,2 z M 57.91,41.16 c -1.09,0 -1.98,-0.89 -1.98,-2 0,-1.1 0.88,-2 1.98,-2 h 29.23 c 1.09,0 1.98,0.89 1.98,2 0,1.1 -0.88,2 -1.98,2 z m 12.56,65.21 c -1.09,0 -1.98,-0.89 -1.98,-2 0,-1.1 0.88,-2 1.98,-2 h 16.68 c 1.09,0 1.98,0.89 1.98,2 0,1.1 -0.88,2 -1.98,2 z m 0,-81.51 c -1.09,0 -1.98,-0.89 -1.98,-2 0,-1.1 0.88,-2 1.98,-2 h 16.68 c 1.09,0 1.98,0.89 1.98,2 0,1.1 -0.88,2 -1.98,2 z m -45.7,5.2 c -0.2,-0.18 -0.32,-0.44 -0.33,-0.71 -0.01,-0.26 0.07,-0.52 0.26,-0.74 0,0 0,-0.01 0.01,-0.01 0.18,-0.2 0.44,-0.32 0.71,-0.33 0.26,-0.01 0.53,0.07 0.74,0.27 l 3.42,3.1 8.19,-8.58 c 0.19,-0.2 0.45,-0.31 0.72,-0.32 0.27,-0.01 0.52,0.08 0.73,0.29 0.2,0.19 0.31,0.45 0.32,0.72 0.01,0.27 -0.08,0.52 -0.29,0.74 l -8.89,9.3 -0.02,0.02 c -0.18,0.18 -0.44,0.29 -0.69,0.3 -0.26,0.01 -0.52,-0.08 -0.73,-0.27 l -4.15,-3.76 z"
       class="st0" /></g></svg>
