<?xml version="1.0" encoding="UTF-8" standalone="no"?>
<svg
   xmlns:dc="http://purl.org/dc/elements/1.1/"
   xmlns:cc="http://creativecommons.org/ns#"
   xmlns:rdf="http://www.w3.org/1999/02/22-rdf-syntax-ns#"
   xmlns:svg="http://www.w3.org/2000/svg"
   xmlns="http://www.w3.org/2000/svg"
   xmlns:sodipodi="http://sodipodi.sourceforge.net/DTD/sodipodi-0.dtd"
   xmlns:inkscape="http://www.inkscape.org/namespaces/inkscape"
   inkscape:version="1.0 (4035a4fb49, 2020-05-01)"
   sodipodi:docname="route-arrows-up.svg"
   xml:space="preserve"
   style="enable-background:new 0 0 122.88 113.02"
   viewBox="0 0 122.88 113.02"
   y="0px"
   x="0px"
   id="Layer_1"
   version="1.1"><metadata
     id="metadata11"><rdf:RDF><cc:Work
         rdf:about=""><dc:format>image/svg+xml</dc:format><dc:type
           rdf:resource="http://purl.org/dc/dcmitype/StillImage" /></cc:Work></rdf:RDF></metadata><defs
     id="defs9" /><sodipodi:namedview
     inkscape:current-layer="Layer_1"
     inkscape:window-maximized="0"
     inkscape:window-y="27"
     inkscape:window-x="0"
     inkscape:cy="5.9015198"
     inkscape:cx="73.039738"
     inkscape:zoom="2.6777713"
     showgrid="false"
     id="namedview7"
     inkscape:window-height="864"
     inkscape:window-width="1615"
     inkscape:pageshadow="2"
     inkscape:pageopacity="0"
     guidetolerance="10"
     gridtolerance="10"
     objecttolerance="10"
     borderopacity="1"
     bordercolor="#666666"
     pagecolor="#ffffff" /><g
     style="fill:#374246;fill-opacity:1"
     id="g4"><path
       style="fill:#374246;fill-opacity:1"
       id="path2"
       d="M 52.75,68.37 C 45.12,62.07 35.27,58.96 23.21,59.02 v -15 L 0,67.81 23.21,90.9 V 77.76 c 9.07,-0.05 15.78,2.48 20.14,7.61 4.87,5.73 7.53,14.94 7.96,27.66 l 10.11,-0.32 10.11,0.32 c 0.01,-0.2 0.01,-0.4 0.02,-0.6 h 0.01 v -0.35 c 0.53,-12.23 3.17,-21.12 7.92,-26.71 4.37,-5.14 11.1,-7.67 20.19,-7.61 V 90.9 L 122.88,67.81 99.67,44.02 V 59.01 C 88.35,58.95 78.98,61.67 71.56,67.2 v -44 H 85.59 L 61.81,0 38.72,23.21 h 14.03 z" /></g></svg>
