<?xml version="1.0" encoding="UTF-8" standalone="no"?>
<svg
   xmlns:dc="http://purl.org/dc/elements/1.1/"
   xmlns:cc="http://creativecommons.org/ns#"
   xmlns:rdf="http://www.w3.org/1999/02/22-rdf-syntax-ns#"
   xmlns:svg="http://www.w3.org/2000/svg"
   xmlns="http://www.w3.org/2000/svg"
   xmlns:sodipodi="http://sodipodi.sourceforge.net/DTD/sodipodi-0.dtd"
   xmlns:inkscape="http://www.inkscape.org/namespaces/inkscape"
   version="1.1"
   id="Layer_1"
   x="0px"
   y="0px"
   viewBox="0 0 113.45 122.88"
   style="enable-background:new 0 0 113.45 122.88"
   xml:space="preserve"
   sodipodi:docname="server-search_grey.svg"
   inkscape:version="1.0beta2 (unknown)"><metadata
     id="metadata26"><rdf:RDF><cc:Work
         rdf:about=""><dc:format>image/svg+xml</dc:format><dc:type
           rdf:resource="http://purl.org/dc/dcmitype/StillImage" /><dc:title></dc:title></cc:Work></rdf:RDF></metadata><defs
     id="defs24" /><sodipodi:namedview
     pagecolor="#ffffff"
     bordercolor="#666666"
     inkscape:document-rotation="0"
     borderopacity="1"
     objecttolerance="10"
     gridtolerance="10"
     guidetolerance="10"
     inkscape:pageopacity="0"
     inkscape:pageshadow="2"
     inkscape:window-width="1920"
     inkscape:window-height="1053"
     id="namedview22"
     showgrid="false"
     inkscape:zoom="6.9498699"
     inkscape:cx="56.724998"
     inkscape:cy="61.439999"
     inkscape:window-x="0"
     inkscape:window-y="27"
     inkscape:window-maximized="1"
     inkscape:current-layer="Layer_1" /><style
     type="text/css"
     id="style15">.st0{fill-rule:evenodd;clip-rule:evenodd;}</style><g
     id="g19"
     style="fill:#374246;fill-opacity:1"><path
       class="st0"
       d="m 105.36,68.94 c 5.04,5.72 8.09,13.23 8.09,21.45 0,17.94 -14.54,32.49 -32.49,32.49 -12.45,0 -23.27,-7.01 -28.72,-17.29 H 37.43 v 6.94 h -22.1 v -6.94 H 0.01 v -8.06 h 15.32 v -7.01 h 7.02 V 74.65 H 7.24 C 5.25,74.65 3.44,73.84 2.13,72.53 0.81,71.22 0,69.41 0,67.42 V 41.99 C 0,40.22 0.64,38.59 1.71,37.33 0.64,36.07 0,34.44 0,32.66 V 7.24 C 0,5.25 0.81,3.44 2.12,2.13 3.43,0.81 5.24,0 7.24,0 H 98.3 c 1.99,0 3.8,0.81 5.11,2.12 1.31,1.31 2.12,3.12 2.12,5.11 v 25.43 c 0,1.77 -0.65,3.4 -1.71,4.66 1.07,1.26 1.71,2.89 1.71,4.66 v 25.43 c 0,0.52 -0.06,1.03 -0.17,1.53 z m -25.9,6.29 c 3.54,0 6.75,1.44 9.07,3.76 2.32,2.32 3.75,5.52 3.75,9.07 0,2.59 -0.04,4.27 -1.35,6.29 l 5.55,6.05 -5.3,4.97 -5.35,-5.89 c -2.03,1.35 -3.75,1.41 -6.37,1.41 -3.54,0 -6.75,-1.44 -9.07,-3.76 -2.32,-2.32 -3.76,-5.52 -3.76,-9.07 0,-3.54 1.44,-6.75 3.76,-9.07 2.32,-2.33 5.52,-3.76 9.07,-3.76 z m 4.86,7.96 c -1.25,-1.25 -2.97,-2.02 -4.87,-2.02 -1.9,0 -3.62,0.77 -4.87,2.02 -1.25,1.25 -2.02,2.97 -2.02,4.87 0,1.9 0.77,3.62 2.02,4.87 1.25,1.25 2.97,2.02 4.87,2.02 1.9,0 3.62,-0.77 4.87,-2.02 1.25,-1.25 2.02,-2.97 2.02,-4.87 0,-1.9 -0.77,-3.63 -2.02,-4.87 z M 49.27,97.53 c -0.52,-2.3 -0.79,-4.69 -0.79,-7.14 0,-5.71 1.48,-11.08 4.06,-15.74 H 30.4 v 15.88 h 7.02 v 7.01 H 49.27 Z M 26.38,96.51 c 2.77,0 5.02,2.25 5.02,5.02 0,2.77 -2.25,5.02 -5.02,5.02 -2.77,0 -5.02,-2.25 -5.02,-5.02 0,-2.77 2.24,-5.02 5.02,-5.02 z M 14.17,13.03 h 5.35 v 13.85 h -5.35 z m 73.52,37.43 c 2.34,0 4.24,1.9 4.24,4.24 0,2 -1.38,3.67 -3.24,4.12 1.68,0.41 3.31,0.95 4.88,1.61 2.45,1.03 4.75,2.34 6.86,3.91 V 41.99 c 0,-0.58 -0.24,-1.12 -0.63,-1.5 -0.3,-0.3 -0.69,-0.51 -1.12,-0.59 -0.13,0.01 -0.26,0.01 -0.38,0.01 H 7.24 c -0.13,0 -0.26,0 -0.38,-0.01 -0.43,0.08 -0.82,0.29 -1.12,0.59 -0.4,0.38 -0.64,0.91 -0.64,1.5 v 25.43 c 0,0.58 0.24,1.12 0.63,1.5 0.39,0.39 0.92,0.63 1.5,0.63 H 55.8 c 2.94,-3.48 6.58,-6.34 10.7,-8.35 4.35,-2.12 9.23,-3.31 14.39,-3.31 1.48,0 2.94,0.1 4.37,0.29 -1.1,-0.77 -1.81,-2.04 -1.81,-3.48 0,-2.34 1.9,-4.24 4.24,-4.24 z m -16.15,0 c 2.34,0 4.24,1.9 4.24,4.24 0,2.34 -1.9,4.24 -4.24,4.24 -2.34,0 -4.24,-1.9 -4.24,-4.24 0,-2.34 1.9,-4.24 4.24,-4.24 z M 43.75,47.78 h 5.35 v 13.85 h -5.35 z m -14.79,0 h 5.35 v 13.85 h -5.35 z m -14.79,0 h 5.35 V 61.63 H 14.17 Z M 87.69,15.71 c 2.34,0 4.24,1.9 4.24,4.24 0,2.34 -1.9,4.24 -4.24,4.24 -2.34,0 -4.24,-1.9 -4.24,-4.24 0,-2.34 1.9,-4.24 4.24,-4.24 z m -16.15,0 c 2.34,0 4.24,1.9 4.24,4.24 0,2.34 -1.9,4.24 -4.24,4.24 -2.34,0 -4.24,-1.9 -4.24,-4.24 0,-2.34 1.9,-4.24 4.24,-4.24 z M 43.75,13.03 h 5.35 v 13.85 h -5.35 z m -14.79,0 h 5.35 V 26.88 H 28.96 Z M 6.85,34.76 c 0.13,-0.01 0.26,-0.01 0.38,-0.01 h 91.06 c 0.13,0 0.26,0 0.38,0.01 0.43,-0.08 0.82,-0.29 1.12,-0.59 0.39,-0.39 0.63,-0.92 0.63,-1.5 V 7.24 c 0,-0.58 -0.24,-1.12 -0.63,-1.51 C 99.4,5.34 98.87,5.1 98.29,5.1 H 7.24 C 6.66,5.1 6.12,5.34 5.73,5.73 5.34,6.12 5.1,6.65 5.1,7.24 v 25.43 c 0,0.58 0.24,1.12 0.63,1.5 0.3,0.3 0.69,0.51 1.12,0.59 z M 97.96,68.85 C 96.03,67.35 93.9,66.09 91.62,65.13 88.33,63.75 84.7,62.99 80.9,62.99 c -2.37,0 -4.67,0.3 -6.87,0.86 -11.79,3.08 -20.49,13.8 -20.49,26.55 0,15.15 12.28,27.44 27.44,27.44 15.16,0 27.44,-12.28 27.44,-27.44 -0.02,-8.74 -4.1,-16.52 -10.46,-21.55 z"
       id="path17"
       inkscape:connector-curvature="0"
       style="fill:#374246;fill-opacity:1" /></g></svg>
