<?xml version="1.0" encoding="UTF-8" standalone="no"?>
<svg
   xmlns:dc="http://purl.org/dc/elements/1.1/"
   xmlns:cc="http://creativecommons.org/ns#"
   xmlns:rdf="http://www.w3.org/1999/02/22-rdf-syntax-ns#"
   xmlns:svg="http://www.w3.org/2000/svg"
   xmlns="http://www.w3.org/2000/svg"
   xmlns:sodipodi="http://sodipodi.sourceforge.net/DTD/sodipodi-0.dtd"
   xmlns:inkscape="http://www.inkscape.org/namespaces/inkscape"
   inkscape:version="1.0 (4035a4fb49, 2020-05-01)"
   sodipodi:docname="tcp_grey.svg"
   xml:space="preserve"
   style="enable-background:new 0 0 122.88 122.15"
   viewBox="0 0 122.88 122.15"
   y="0px"
   x="0px"
   id="Layer_1"
   version="1.1"><metadata
     id="metadata13"><rdf:RDF><cc:Work
         rdf:about=""><dc:format>image/svg+xml</dc:format><dc:type
           rdf:resource="http://purl.org/dc/dcmitype/StillImage" /></cc:Work></rdf:RDF></metadata><defs
     id="defs11" /><sodipodi:namedview
     inkscape:current-layer="Layer_1"
     inkscape:window-maximized="1"
     inkscape:window-y="27"
     inkscape:window-x="0"
     inkscape:cy="61.075001"
     inkscape:cx="61.439999"
     inkscape:zoom="7.0077772"
     showgrid="false"
     id="namedview9"
     inkscape:window-height="1053"
     inkscape:window-width="1920"
     inkscape:pageshadow="2"
     inkscape:pageopacity="0"
     guidetolerance="10"
     gridtolerance="10"
     objecttolerance="10"
     borderopacity="1"
     bordercolor="#666666"
     pagecolor="#ffffff" /><style
     id="style2"
     type="text/css">.st0{fill-rule:evenodd;clip-rule:evenodd;}</style><g
     style="fill:#374246;fill-opacity:1"
     id="g6"><path
       style="fill:#374246;fill-opacity:1"
       id="path4"
       d="M18.23,17.84h13.12v19.82c0,2.05,1.66,3.71,3.71,3.71c2.05,0,3.71-1.66,3.71-3.71V17.84h10.17v19.82 c0,2.05,1.66,3.71,3.71,3.71c2.05,0,3.71-1.66,3.71-3.71V17.84h10.17v19.82c0,2.05,1.66,3.71,3.71,3.71c2.05,0,3.71-1.66,3.71-3.71 V17.84h10.17v19.82c0,2.05,1.66,3.71,3.71,3.71c2.05,0,3.71-1.66,3.71-3.71V17.84h13.12c0.63,0,1.15,0.52,1.15,1.15v57.48 c0,0.63-0.52,1.15-1.15,1.15H78.46v13.28c0,0.33-0.27,0.61-0.61,0.61H46.1c-0.33,0-0.61-0.27-0.61-0.61V77.61H18.23 c-0.63,0-1.15-0.52-1.15-1.15V18.98C17.09,18.35,17.6,17.84,18.23,17.84L18.23,17.84z M13.48,0h95.92c3.71,0,7.08,1.52,9.52,3.96 c2.44,2.44,3.96,5.81,3.96,9.52v95.19c0,3.71-1.52,7.08-3.96,9.52c-2.44,2.44-5.81,3.96-9.52,3.96H13.48 c-3.71,0-7.08-1.52-9.52-3.96C1.52,115.75,0,112.38,0,108.67V13.48C0,9.77,1.52,6.4,3.96,3.96C6.4,1.52,9.77,0,13.48,0L13.48,0z M109.4,6.54H13.48c-1.9,0-3.64,0.78-4.9,2.04c-1.26,1.26-2.04,2.99-2.04,4.9v95.19c0,1.9,0.78,3.64,2.04,4.9 c1.26,1.26,2.99,2.04,4.9,2.04h95.92c1.9,0,3.64-0.78,4.9-2.04c1.26-1.26,2.04-2.99,2.04-4.9V13.48c0-1.9-0.78-3.64-2.04-4.9 C113.04,7.32,111.31,6.54,109.4,6.54L109.4,6.54z"
       class="st0" /></g></svg>
