<?xml version="1.0" encoding="UTF-8" standalone="no"?>
<svg
   xmlns:dc="http://purl.org/dc/elements/1.1/"
   xmlns:cc="http://creativecommons.org/ns#"
   xmlns:rdf="http://www.w3.org/1999/02/22-rdf-syntax-ns#"
   xmlns:svg="http://www.w3.org/2000/svg"
   xmlns="http://www.w3.org/2000/svg"
   xmlns:sodipodi="http://sodipodi.sourceforge.net/DTD/sodipodi-0.dtd"
   xmlns:inkscape="http://www.inkscape.org/namespaces/inkscape"
   version="1.1"
   id="Layer_1"
   x="0px"
   y="0px"
   viewBox="0 0 120.58 122.88"
   style="enable-background:new 0 0 120.58 122.88"
   xml:space="preserve"
   sodipodi:docname="toy-block_green.svg"
   inkscape:version="1.0beta2 (unknown)"><metadata
     id="metadata37"><rdf:RDF><cc:Work
         rdf:about=""><dc:format>image/svg+xml</dc:format><dc:type
           rdf:resource="http://purl.org/dc/dcmitype/StillImage" /><dc:title></dc:title></cc:Work></rdf:RDF></metadata><defs
     id="defs35" /><sodipodi:namedview
     pagecolor="#ffffff"
     bordercolor="#666666"
     inkscape:document-rotation="0"
     borderopacity="1"
     objecttolerance="10"
     gridtolerance="10"
     guidetolerance="10"
     inkscape:pageopacity="0"
     inkscape:pageshadow="2"
     inkscape:window-width="1920"
     inkscape:window-height="1053"
     id="namedview33"
     showgrid="false"
     inkscape:zoom="3.474935"
     inkscape:cx="14.377883"
     inkscape:cy="41.711235"
     inkscape:window-x="0"
     inkscape:window-y="27"
     inkscape:window-maximized="1"
     inkscape:current-layer="Layer_1" /><g
     id="g30"
     style="fill:#39be78;fill-opacity:1"><path
       d="m 72.6,17.95 c -0.3,-0.4 -0.45,-0.9 -0.44,-1.4 -0.34,0.27 -0.7,0.52 -1.08,0.76 -2.67,1.68 -6.32,2.73 -10.32,2.73 -4,0 -7.66,-1.04 -10.32,-2.73 -0.58,-0.36 -1.11,-0.76 -1.59,-1.18 v 3.1 c 0,3.63 2.97,5.98 6.78,7.04 1.6,0.45 3.34,0.67 5.08,0.67 1.74,0 3.48,-0.22 5.08,-0.67 3.83,-1.07 6.83,-3.42 6.83,-7.01 V 17.95 Z M 60.86,31.62 c 4,0 7.66,1.04 10.32,2.73 2.88,1.82 4.66,4.39 4.66,7.29 0,0.37 -0.03,0.73 -0.08,1.08 v 8.16 c 0,5.22 -3.98,8.53 -9.06,9.94 -1.86,0.52 -3.87,0.78 -5.89,0.78 -2.01,0 -4.03,-0.26 -5.89,-0.77 -5.06,-1.41 -9.02,-4.72 -9.02,-9.97 v -8.22 c 0,-0.09 0.01,-0.17 0.02,-0.25 -0.03,-0.24 -0.04,-0.49 -0.04,-0.74 0,-2.9 1.78,-5.48 4.66,-7.29 2.67,-1.7 6.32,-2.74 10.32,-2.74 z m 11.85,16.2 c -0.46,0.4 -0.97,0.77 -1.52,1.12 -2.67,1.68 -6.32,2.73 -10.32,2.73 -4,0 -7.66,-1.04 -10.32,-2.73 -0.58,-0.36 -1.11,-0.76 -1.59,-1.18 v 3.1 c 0,3.63 2.97,5.98 6.78,7.04 1.6,0.45 3.34,0.67 5.08,0.67 1.74,0 3.48,-0.22 5.08,-0.67 3.83,-1.07 6.83,-3.42 6.83,-7.01 v -3.07 z m -3.14,-10.9 c -2.2,-1.39 -5.28,-2.25 -8.7,-2.25 -3.43,0 -6.5,0.86 -8.7,2.25 -1.99,1.26 -3.23,2.93 -3.23,4.72 0,1.79 1.23,3.46 3.23,4.72 2.2,1.39 5.28,2.25 8.7,2.25 3.43,0 6.5,-0.86 8.7,-2.25 1.69,-1.07 2.83,-2.43 3.14,-3.92 v -0.28 c 0,-0.17 0.03,-0.34 0.08,-0.5 v -0.03 c 0,-1.78 -1.23,-3.45 -3.22,-4.71 z M 30.03,16.71 c 3.2,0 6.17,0.66 8.6,1.79 0.12,-0.12 0.26,-0.22 0.41,-0.31 l 6.28,-3.63 c 0.15,-0.09 0.31,-0.15 0.47,-0.2 v -3.35 c 0,-0.09 0.01,-0.17 0.02,-0.25 -0.03,-0.24 -0.04,-0.49 -0.04,-0.74 0,-2.9 1.78,-5.48 4.66,-7.29 C 53.1,1.04 56.75,0 60.75,0 c 4,0 7.66,1.04 10.32,2.73 2.88,1.82 4.66,4.39 4.66,7.29 0,0.37 -0.03,0.73 -0.08,1.08 v 3.66 l 6.84,3.75 c 0.14,0.08 0.27,0.17 0.39,0.27 2.65,-1.63 6.24,-2.63 10.17,-2.63 4,0 7.66,1.04 10.32,2.73 2.88,1.82 4.66,4.39 4.66,7.29 0,0.37 -0.03,0.73 -0.08,1.08 v 5.26 c 0.16,0.04 0.32,0.11 0.48,0.19 l 10.89,5.97 c 0.39,0.19 0.73,0.49 0.96,0.89 0.2,0.35 0.3,0.74 0.3,1.12 h 0.01 v 45.19 c 0,0.85 -0.48,1.6 -1.18,1.98 l -57.43,34.7 c -0.34,0.21 -0.72,0.31 -1.09,0.32 -0.04,0 -0.08,0 -0.12,0 -0.56,0 -1.08,-0.21 -1.47,-0.55 L 1.1,88.27 C 0.37,87.84 -0.03,87.06 0,86.26 L 0.69,41.74 C 0.67,41.33 0.76,40.91 0.97,40.52 1.2,40.1 1.55,39.79 1.95,39.6 l 12.47,-7.2 c 0.2,-0.12 0.42,-0.2 0.63,-0.25 v -4.43 c 0,-0.09 0.01,-0.17 0.02,-0.25 -0.03,-0.24 -0.04,-0.49 -0.04,-0.74 0,-2.9 1.78,-5.48 4.66,-7.29 2.68,-1.69 6.34,-2.73 10.34,-2.73 z m 12.61,4.56 c 1.5,1.56 2.37,3.43 2.37,5.46 0,0.37 -0.03,0.73 -0.08,1.08 v 8.16 c 0,5.22 -3.98,8.53 -9.06,9.94 -1.86,0.52 -3.87,0.78 -5.89,0.78 -2.01,0 -4.03,-0.26 -5.89,-0.77 -4.67,-1.3 -8.39,-4.21 -8.95,-8.77 l -7.69,4.44 53.28,29.85 53.05,-30.69 -6.05,-3.32 c -0.89,4.06 -4.45,6.71 -8.85,7.93 -1.86,0.52 -3.87,0.78 -5.89,0.78 -2.02,0 -4.03,-0.26 -5.89,-0.77 -5.06,-1.41 -9.02,-4.72 -9.02,-9.97 v -8.22 c 0,-0.09 0.01,-0.17 0.02,-0.25 -0.03,-0.24 -0.04,-0.49 -0.04,-0.74 0,-1.52 0.49,-2.96 1.37,-4.24 l -3.81,-2.08 c -0.29,4.88 -4.15,8 -9.05,9.36 -1.86,0.52 -3.87,0.78 -5.89,0.78 -2.02,0 -4.03,-0.26 -5.89,-0.77 -5,-1.39 -8.91,-4.63 -9.01,-9.76 z M 41.88,32.9 c -0.46,0.4 -0.97,0.77 -1.52,1.12 -2.67,1.68 -6.32,2.73 -10.32,2.73 -4,0 -7.66,-1.04 -10.32,-2.73 -0.58,-0.36 -1.11,-0.76 -1.59,-1.18 v 3.1 c 0,3.63 2.97,5.98 6.78,7.04 1.6,0.45 3.34,0.67 5.08,0.67 1.74,0 3.48,-0.22 5.08,-0.67 3.83,-1.07 6.83,-3.42 6.83,-7.01 V 32.9 Z M 38.73,22.01 c -2.2,-1.39 -5.28,-2.25 -8.7,-2.25 -3.43,0 -6.5,0.86 -8.7,2.25 -1.99,1.26 -3.23,2.93 -3.23,4.72 0,1.79 1.23,3.46 3.23,4.72 2.2,1.39 5.28,2.25 8.7,2.25 3.43,0 6.5,-0.86 8.7,-2.25 1.69,-1.07 2.83,-2.43 3.14,-3.92 v -0.28 c 0,-0.17 0.03,-0.34 0.08,-0.5 v -0.03 c 0.01,-1.78 -1.22,-3.45 -3.22,-4.71 z m 66.16,10.33 c -0.46,0.4 -0.97,0.77 -1.52,1.12 -2.67,1.68 -6.32,2.73 -10.32,2.73 -4,0 -7.66,-1.04 -10.32,-2.73 -0.58,-0.36 -1.11,-0.76 -1.59,-1.18 v 3.1 c 0,3.63 2.97,5.98 6.78,7.04 1.6,0.45 3.34,0.67 5.08,0.67 1.74,0 3.48,-0.22 5.08,-0.67 3.83,-1.07 6.83,-3.42 6.83,-7.01 v -3.07 z m -3.14,-10.89 c -2.2,-1.39 -5.28,-2.25 -8.7,-2.25 -3.43,0 -6.5,0.86 -8.7,2.25 -1.99,1.26 -3.23,2.93 -3.23,4.72 0,1.79 1.23,3.46 3.23,4.72 2.2,1.39 5.28,2.25 8.7,2.25 3.43,0 6.5,-0.86 8.7,-2.25 1.69,-1.07 2.83,-2.43 3.14,-3.92 V 26.7 c 0,-0.17 0.03,-0.34 0.08,-0.5 v -0.03 c 0,-1.79 -1.23,-3.47 -3.22,-4.72 z M 72.6,10.83 v -0.28 c 0,-0.17 0.03,-0.34 0.08,-0.5 v -0.03 c 0,-1.79 -1.23,-3.46 -3.23,-4.72 -2.2,-1.39 -5.28,-2.25 -8.7,-2.25 -3.43,0 -6.5,0.86 -8.7,2.25 -1.99,1.26 -3.23,2.93 -3.23,4.72 0,1.79 1.23,3.46 3.23,4.72 2.2,1.39 5.28,2.25 8.7,2.25 3.43,0 6.5,-0.86 8.7,-2.25 1.7,-1.06 2.84,-2.43 3.15,-3.91 z m -9.61,64.46 v 41.42 l 53.1,-32.09 V 44.57 Z M 58.51,116.7 V 75.31 L 5.1,45.4 4.49,85.07 Z"
       id="path28"
       inkscape:connector-curvature="0"
       style="fill:#39be78;fill-opacity:1" /></g></svg>
