<?xml version="1.0" encoding="UTF-8" standalone="no"?>
<svg
   xmlns:dc="http://purl.org/dc/elements/1.1/"
   xmlns:cc="http://creativecommons.org/ns#"
   xmlns:rdf="http://www.w3.org/1999/02/22-rdf-syntax-ns#"
   xmlns:svg="http://www.w3.org/2000/svg"
   xmlns="http://www.w3.org/2000/svg"
   xmlns:sodipodi="http://sodipodi.sourceforge.net/DTD/sodipodi-0.dtd"
   xmlns:inkscape="http://www.inkscape.org/namespaces/inkscape"
   viewBox="0 0 3333 3333"
   shape-rendering="geometricPrecision"
   text-rendering="geometricPrecision"
   image-rendering="optimizeQuality"
   fill-rule="evenodd"
   clip-rule="evenodd"
   version="1.1"
   id="svg14"
   sodipodi:docname="twitter-round_green.svg"
   inkscape:version="1.0beta2 (unknown)">
  <metadata
     id="metadata20">
    <rdf:RDF>
      <cc:Work
         rdf:about="">
        <dc:format>image/svg+xml</dc:format>
        <dc:type
           rdf:resource="http://purl.org/dc/dcmitype/StillImage" />
        <dc:title></dc:title>
      </cc:Work>
    </rdf:RDF>
  </metadata>
  <defs
     id="defs18" />
  <sodipodi:namedview
     pagecolor="#ffffff"
     bordercolor="#666666"
     inkscape:document-rotation="0"
     borderopacity="1"
     objecttolerance="10"
     gridtolerance="10"
     guidetolerance="10"
     inkscape:pageopacity="0"
     inkscape:pageshadow="2"
     inkscape:window-width="1680"
     inkscape:window-height="1013"
     id="namedview16"
     showgrid="false"
     inkscape:zoom="0.25622562"
     inkscape:cx="1666.5"
     inkscape:cy="1666.5"
     inkscape:window-x="1920"
     inkscape:window-y="30"
     inkscape:window-maximized="1"
     inkscape:current-layer="svg14" />
  <path
     d="M1667 0c920 0 1667 746 1667 1667 0 920-746 1667-1667 1667C747 3334 0 2588 0 1667 0 747 746 0 1667 0zm900 1108c-66 30-137 49-212 58 76-46 135-118 162-204-71 42-151 73-234 90-68-72-163-116-270-116-204 0-369 165-369 369 0 29 3 57 9 84-307-16-579-162-761-386-33 56-50 120-50 186 0 128 65 241 164 307-61-2-117-19-167-46v5c0 179 127 328 296 362-31 8-64 13-97 13-24 0-47-2-70-7 47 147 183 253 345 257-127 99-285 158-459 158-30 0-59-2-88-5 164 105 358 166 566 166 679 0 1051-563 1051-1051 0-16 0-32-1-48 72-52 135-117 184-191z"
     id="path12"
     style="fill:#39be78;fill-opacity:1" />
</svg>
