<?xml version="1.0" encoding="UTF-8" standalone="no"?>
<svg
   xmlns:dc="http://purl.org/dc/elements/1.1/"
   xmlns:cc="http://creativecommons.org/ns#"
   xmlns:rdf="http://www.w3.org/1999/02/22-rdf-syntax-ns#"
   xmlns:svg="http://www.w3.org/2000/svg"
   xmlns="http://www.w3.org/2000/svg"
   xmlns:sodipodi="http://sodipodi.sourceforge.net/DTD/sodipodi-0.dtd"
   xmlns:inkscape="http://www.inkscape.org/namespaces/inkscape"
   inkscape:version="1.0beta2 (unknown)"
   sodipodi:docname="twitter-line_white.svg"
   id="svg25"
   version="1.1"
   clip-rule="evenodd"
   fill-rule="evenodd"
   image-rendering="optimizeQuality"
   text-rendering="geometricPrecision"
   shape-rendering="geometricPrecision"
   viewBox="0 0 3333 2725">
  <metadata
     id="metadata31">
    <rdf:RDF>
      <cc:Work
         rdf:about="">
        <dc:format>image/svg+xml</dc:format>
        <dc:type
           rdf:resource="http://purl.org/dc/dcmitype/StillImage" />
        <dc:title></dc:title>
      </cc:Work>
    </rdf:RDF>
  </metadata>
  <defs
     id="defs29" />
  <sodipodi:namedview
     inkscape:current-layer="svg25"
     inkscape:window-maximized="1"
     inkscape:window-y="27"
     inkscape:window-x="0"
     inkscape:cy="840.88034"
     inkscape:cx="495.60552"
     inkscape:zoom="0.15669725"
     showgrid="false"
     id="namedview27"
     inkscape:window-height="1053"
     inkscape:window-width="1920"
     inkscape:pageshadow="2"
     inkscape:pageopacity="0"
     guidetolerance="10"
     gridtolerance="10"
     objecttolerance="10"
     borderopacity="1"
     inkscape:document-rotation="0"
     bordercolor="#666666"
     pagecolor="#ffffff" />
  <path
     style="fill:#ffffff;fill-opacity:1"
     id="path23"
     fill-rule="nonzero"
     d="M3150 459c-12 4-25 7-37 11-66 18-134 31-203 39-26 3-49-16-52-42-2-20 8-39 25-47 63-38 119-87 164-145 19-24 36-49 52-76-29 14-59 26-90 38-72 28-148 49-225 65-17 3-34-3-45-16-57-60-126-109-204-142-75-32-158-50-246-50-170 0-325 69-436 181-112 112-181 266-181 436 0 25 1 48 4 71 3 24 7 47 12 69 6 25-10 51-35 56-5 1-10 1-15 1-278-14-540-87-774-206-221-112-418-266-581-451-13 29-23 58-31 89-14 52-21 106-21 161 0 105 26 205 72 291 48 90 117 166 202 222 22 14 28 44 13 65-10 15-27 22-43 21-56-2-111-10-163-25-29-8-56-17-83-29 13 122 62 233 136 323 89 108 213 186 356 214 26 5 42 30 37 56-4 19-18 32-35 37-29 8-60 14-92 18s-63 6-94 6c-17 0-35-1-53-2 44 94 110 175 192 236 100 74 223 119 356 122 26 0 47 22 46 48 0 15-7 28-18 36-120 94-256 169-402 219-131 45-271 71-417 75 98 49 201 90 307 121 1 0 1 0 2 1 163 48 336 73 516 73 548 0 982-209 1290-517 363-363 553-864 553-1326v-42c0-13-1-27-1-42-1-16 7-31 20-40 62-45 120-95 174-150 17-18 33-36 49-54zm-62-80c60-16 119-37 175-62 18-10 41-7 56 8 17 17 18 45 3 63-46 68-97 132-154 190-51 53-107 102-166 147v19c0 20 1 35 1 44 0 486-200 1012-581 1393-325 325-781 545-1357 545-188 0-370-27-542-77-1 0-2 0-2-1-178-52-345-129-498-227-16-9-26-27-24-47 3-26 27-44 52-41 26 3 51 5 76 7 24 1 50 2 77 2 148 0 289-25 421-70 98-34 191-79 276-134-105-21-201-65-284-126-118-88-208-211-254-354-2-7-3-15-2-23 5-26 29-43 55-38 19 3 39 6 58 8 9 1 19 2 28 2-82-44-155-105-214-176-100-123-161-280-161-451v-8c0-8 2-15 6-23 12-23 41-31 64-19 39 21 79 38 122 51-40-43-74-92-102-144-54-100-84-215-84-335 0-63 8-125 25-185 16-60 40-118 72-173 3-5 6-9 11-13 20-16 50-13 66 7 162 199 365 364 597 481 207 105 436 172 679 192-1-6-2-12-2-18-3-27-5-55-5-82 0-196 80-374 208-503C1913 79 2090 0 2287 0c100 0 196 21 283 58 82 35 155 85 218 147 63-14 125-32 185-55 69-26 135-58 197-95 11-7 25-9 38-4 25 8 38 34 30 59-27 83-68 159-121 225-13 16-26 32-40 47l7-2z" />
</svg>
